<svg xmlns="http://www.w3.org/2000/svg" width="170" height="53" viewBox="0 0 170 53">
    <g fill="none" fill-rule="nonzero">
        <path fill="#16EFC5" d="M38.941 40.036v-.072c-.072-.941-.869-1.593-1.81-1.52l-25.478 3.475-1.882.217a1.504 1.504 0 0 0-1.375 1.52V50.534c0 1.014.869 1.738 1.81 1.593l27.36-3.765c.796-.144 1.375-.796 1.375-1.592v-.073-6.66zm-27.288 8.688v-3.547l24.103-3.258v3.547l-24.103 3.258z"/>
        <path fill="#0CF" d="M38.941 20.127c0-2.172-1.375-3.982-3.257-4.706-.58-.217-1.158-.362-1.81-.362-.651 0-1.23.145-1.81.362-.216.072-.434.217-.65.29a5.267 5.267 0 0 0-2.606-2.245c-.58-.217-1.158-.362-1.81-.362-.651 0-1.23.145-1.81.362l-.868.435c-.579-.87-1.448-1.52-2.389-1.883-.579-.217-1.158-.362-1.81-.362-.65 0-1.23.145-1.809.362V5.285c0-2.172-1.375-3.982-3.257-4.706-.579-.217-1.158-.362-1.81-.362-.65 0-1.23.145-1.809.362-1.882.724-3.257 2.534-3.257 4.706v23.53l-6.152.796c-.797.145-1.448.796-1.376 1.665.073.941.941 1.665 1.882 1.52L8.18 32v4.996c0 .579.29 1.013.651 1.303.29.217.724.362 1.159.29l1.447-.218 10.857-1.448.29-.072c.651-.072 1.23-.362 1.81-.652a4.956 4.956 0 0 0 2.388-4.271c0-1.81-.941-3.403-2.389-4.272-.796-.434-1.664-.724-2.605-.724h-.435c-.144 0-.29 0-.434.073l-9.482 1.303V5.285c0-.941.724-1.81 1.665-1.882 1.013-.073 1.882.796 1.882 1.81v16.724c0 .869.724 1.665 1.665 1.665.868 0 1.664-.724 1.664-1.665v-5.285c0-1.014.797-1.81 1.81-1.81s1.81.796 1.81 1.81v5.285c0 .869.723 1.665 1.664 1.665.869 0 1.665-.724 1.665-1.665v-3.765c0-1.014.796-1.81 1.81-1.81 1.013 0 1.809.796 1.809 1.81v3.765c0 .869.724 1.665 1.665 1.665.868 0 1.665-.724 1.665-1.665v-1.883c0-1.013.796-1.81 1.809-1.81s1.81.797 1.81 1.81v13.322c0 .869.723 1.665 1.664 1.665.869 0 1.665-.724 1.665-1.665l-.217-13.25zM17.154 30.914l4.488-.579H22.076c.58 0 1.086.217 1.448.724.796 1.303 0 2.606-1.158 2.824h-.145l-4.56.579-6.008.796v-.507-3.113l5.501-.724z"/>
        <g fill="#0CF">
            <path d="M48.762 40.326V24.76c0-.651.217-1.23.579-1.592.362-.362.869-.58 1.52-.58a2.02 2.02 0 0 1 1.448.58c.361.362.579.868.579 1.592v5.792H61.5V24.76c0-.651.217-1.23.579-1.592.362-.362.869-.58 1.52-.58a2.02 2.02 0 0 1 1.448.58c.362.362.579.868.579 1.592v15.566c0 .652-.217 1.23-.58 1.593-.361.362-.868.579-1.52.579a2.02 2.02 0 0 1-1.447-.58c-.362-.361-.579-.868-.579-1.592v-6.009h-8.613v6.01c0 .65-.218 1.23-.58 1.592-.361.362-.868.579-1.52.579a2.02 2.02 0 0 1-1.447-.58 2.386 2.386 0 0 1-.58-1.592zM83.215 30.118v9.701c0 .724-.072 1.376-.29 1.883-.216.506-.723.724-1.592.724-.506 0-.94-.145-1.23-.435-.29-.29-.507-.724-.652-1.23-1.013 1.23-2.243 1.81-3.763 1.81-1.882 0-3.475-.725-4.705-2.1-1.23-1.448-1.882-3.258-1.882-5.502 0-2.172.651-3.982 1.882-5.43 1.23-1.448 2.823-2.172 4.632-2.172.796 0 1.448.145 2.172.434.651.29 1.23.724 1.592 1.376.072-.507.29-.87.651-1.159.362-.29.797-.434 1.231-.434.796 0 1.375.217 1.592.724.29.434.362 1.013.362 1.81zm-6.948 8.833c.94 0 1.737-.435 2.243-1.231a5.099 5.099 0 0 0 .797-2.751c0-1.014-.29-1.955-.797-2.752a2.577 2.577 0 0 0-2.243-1.23c-1.014 0-1.81.434-2.317 1.23-.506.797-.796 1.738-.796 2.824 0 1.014.29 1.955.796 2.751.507.797 1.231 1.159 2.317 1.159zM87.196 40.254v-10.57c0-.652.145-1.159.507-1.593.362-.435.868-.652 1.447-.652 1.086 0 1.665.507 1.81 1.448.362-.58.869-.941 1.52-1.23.651-.29 1.448-.363 2.316-.363 1.593 0 2.895.507 3.909 1.448 1.013.941 1.52 2.245 1.52 3.91v7.602c0 .651-.145 1.158-.507 1.592-.362.435-.868.652-1.448.652-.579 0-1.085-.217-1.447-.652-.362-.434-.507-.94-.507-1.592v-6.878c0-.869-.217-1.52-.724-2.027-.506-.435-1.085-.724-1.882-.724-.796 0-1.447.217-1.881.724-.435.506-.652 1.158-.652 1.954v6.878c0 .652-.145 1.159-.507 1.593-.361.434-.868.652-1.447.652-.58 0-1.086-.218-1.448-.652-.434-.362-.579-.869-.579-1.52zM117.669 23.385v16.869c0 .651-.145 1.158-.507 1.592-.362.435-.869.652-1.448.652-1.085 0-1.737-.58-1.954-1.665-.362.58-.869 1.013-1.592 1.375a5.108 5.108 0 0 1-2.027.435c-1.954 0-3.474-.724-4.705-2.245-1.23-1.52-1.81-3.257-1.81-5.212 0-2.1.58-3.91 1.665-5.503 1.086-1.52 2.679-2.316 4.705-2.316 1.448 0 2.678.434 3.764 1.375v-5.357c0-.652.145-1.159.507-1.593.362-.434.868-.58 1.447-.58.58 0 1.086.218 1.448.652.362.362.507.87.507 1.52zm-7.021 7.602c-.941 0-1.738.434-2.244 1.23-.58.797-.796 1.738-.796 2.824 0 1.086.29 1.955.796 2.751.506.797 1.303 1.23 2.316 1.23s1.81-.433 2.316-1.23c.507-.796.796-1.81.796-2.896 0-1.013-.29-1.955-.796-2.751-.651-.796-1.375-1.158-2.388-1.158zM129.973 31.928c-.144 0-.651-.217-1.592-.58-.941-.361-1.592-.579-2.027-.579-.434 0-.724.073-.94.29-.218.217-.363.434-.363.796 0 .435.724.942 2.172 1.52 1.447.58 2.606 1.16 3.474 1.738.869.58 1.303 1.52 1.303 2.824 0 1.303-.507 2.39-1.52 3.33-1.013.87-2.389 1.303-4.126 1.303-1.23 0-2.46-.29-3.691-.868-1.23-.58-1.81-1.304-1.81-2.172 0-.362.145-.724.435-1.159.29-.434.723-.651 1.23-.651.434 0 1.086.217 1.954.651.869.435 1.593.652 2.1.652.578 0 1.013-.072 1.23-.29.217-.144.362-.434.362-.868 0-.435-.724-.942-2.244-1.52-1.448-.58-2.606-1.16-3.474-1.738-.796-.58-1.23-1.52-1.23-2.824 0-1.376.506-2.534 1.447-3.33 1.013-.87 2.244-1.231 3.836-1.231 1.158 0 2.316.217 3.33.724 1.085.507 1.592 1.23 1.592 2.1 0 .434-.145.868-.434 1.23-.145.507-.58.652-1.014.652zM134.968 34.534V24.76c0-.651.217-1.23.579-1.592.362-.362.868-.58 1.52-.58a2.02 2.02 0 0 1 1.447.58c.362.362.58.868.58 1.592v9.557c0 1.303.361 2.39 1.157 3.258.797.869 1.81 1.303 3.04 1.303s2.244-.434 2.968-1.303c.796-.869 1.158-1.955 1.158-3.258V24.76c0-.651.217-1.23.58-1.592.361-.362.868-.58 1.52-.58a2.02 2.02 0 0 1 1.447.58c.362.362.579.868.579 1.592v9.774c0 2.245-.796 4.2-2.461 5.72-1.592 1.592-3.547 2.316-5.863 2.316-2.316 0-4.343-.796-5.935-2.316-1.52-1.52-2.316-3.403-2.316-5.72zM155.596 40.326v-15.42c0-.652.217-1.16.58-1.521.361-.362.868-.58 1.592-.58h4.85c2.026 0 3.69.58 4.993 1.81 1.303 1.231 2.027 2.824 2.027 4.706 0 1.955-.651 3.548-1.954 4.706-1.303 1.159-2.968 1.81-4.85 1.81h-3.04v4.49c0 .65-.217 1.23-.579 1.592-.362.362-.868.579-1.52.579a2.02 2.02 0 0 1-1.447-.58c-.435-.434-.652-.94-.652-1.592zm4.126-13.973v5.792h2.823c.868 0 1.52-.29 2.026-.796.507-.507.797-1.231.797-2.1 0-.796-.29-1.52-.797-2.1-.506-.579-1.23-.868-2.026-.868h-2.823v.072z"/>
        </g>
    </g>
</svg>
